<svg width="12" height="8" viewBox="0 0 12 8" fill="none" xmlns="http://www.w3.org/2000/svg">
<path d="M11.2994 6.79042C11.3921 6.69791 11.4656 6.58802 11.5158 6.46704C11.566 6.34607 11.5918 6.21639 11.5918 6.08542C11.5918 5.95445 11.566 5.82477 11.5158 5.7038C11.4656 5.58282 11.3921 5.47293 11.2994 5.38042L6.70935 0.790421C6.61684 0.697717 6.50695 0.624169 6.38598 0.573988C6.265 0.523807 6.13532 0.497976 6.00435 0.497976C5.87338 0.497976 5.7437 0.523807 5.62273 0.573988C5.50176 0.624169 5.39187 0.697717 5.29935 0.790421L0.709353 5.38042C0.616772 5.473 0.543331 5.58291 0.493226 5.70388C0.443121 5.82484 0.417333 5.95449 0.417333 6.08542C0.417333 6.21635 0.443121 6.346 0.493226 6.46696C0.543331 6.58793 0.616772 6.69784 0.709353 6.79042C0.801935 6.883 0.911845 6.95644 1.03281 7.00655C1.15377 7.05665 1.28342 7.08244 1.41435 7.08244C1.54528 7.08244 1.67493 7.05665 1.7959 7.00655C1.91686 6.95644 2.02677 6.883 2.11935 6.79042L6.00935 2.91042L9.88935 6.79042C10.2794 7.18042 10.9194 7.17042 11.2994 6.79042Z" fill="#1D1D1F"/>
</svg>
